<mxfile host="app.diagrams.net" modified="2023-05-23T09:46:09.923Z" agent="Mozilla/5.0 (Windows NT 10.0; Win64; x64; rv:109.0) Gecko/20100101 Firefox/113.0" etag="uzguh3d-042UpxlfihFI" version="21.3.2" type="github">
  <diagram name="Page-1" id="74b105a0-9070-1c63-61bc-23e55f88626e">
    <mxGraphModel dx="1434" dy="1381" grid="1" gridSize="10" guides="1" tooltips="1" connect="1" arrows="1" fold="1" page="1" pageScale="1.5" pageWidth="1169" pageHeight="826" background="none" math="0" shadow="0">
      <root>
        <mxCell id="0" style=";html=1;" />
        <mxCell id="1" style=";html=1;" parent="0" />
        <mxCell id="10b056a9c633e61c-27" style="edgeStyle=orthogonalEdgeStyle;rounded=0;html=1;endArrow=block;endFill=1;jettySize=auto;orthogonalLoop=1;strokeWidth=2;startArrow=none;startFill=0;" parent="1" edge="1">
          <mxGeometry relative="1" as="geometry">
            <mxPoint x="1342" y="560" as="sourcePoint" />
            <mxPoint x="1432" y="560" as="targetPoint" />
          </mxGeometry>
        </mxCell>
        <mxCell id="10b056a9c633e61c-30" value="AppTelCo Authen Flow" style="text;strokeColor=none;fillColor=none;html=1;fontSize=24;fontStyle=1;verticalAlign=middle;align=center;" parent="1" vertex="1">
          <mxGeometry x="80" y="40" width="1590" height="40" as="geometry" />
        </mxCell>
        <mxCell id="ONBF2epBhMk6Fc8EotkD-9" value="" style="edgeStyle=orthogonalEdgeStyle;rounded=0;orthogonalLoop=1;jettySize=auto;html=1;" edge="1" parent="1" source="ONBF2epBhMk6Fc8EotkD-1" target="ONBF2epBhMk6Fc8EotkD-4">
          <mxGeometry relative="1" as="geometry" />
        </mxCell>
        <mxCell id="ONBF2epBhMk6Fc8EotkD-1" value="Topnhanh Api OAuth" style="rounded=0;whiteSpace=wrap;html=1;" vertex="1" parent="1">
          <mxGeometry x="390" y="260" width="120" height="60" as="geometry" />
        </mxCell>
        <mxCell id="ONBF2epBhMk6Fc8EotkD-2" value="Winform Application" style="swimlane;whiteSpace=wrap;html=1;" vertex="1" parent="1">
          <mxGeometry x="160" y="520" width="200" height="200" as="geometry" />
        </mxCell>
        <mxCell id="ONBF2epBhMk6Fc8EotkD-3" value="Authen Login" style="endArrow=classic;html=1;rounded=0;exitX=0.5;exitY=0;exitDx=0;exitDy=0;" edge="1" parent="1" source="ONBF2epBhMk6Fc8EotkD-2" target="ONBF2epBhMk6Fc8EotkD-1">
          <mxGeometry width="50" height="50" relative="1" as="geometry">
            <mxPoint x="270" y="510" as="sourcePoint" />
            <mxPoint x="320" y="460" as="targetPoint" />
          </mxGeometry>
        </mxCell>
        <mxCell id="ONBF2epBhMk6Fc8EotkD-4" value="" style="shape=cylinder3;whiteSpace=wrap;html=1;boundedLbl=1;backgroundOutline=1;size=15;" vertex="1" parent="1">
          <mxGeometry x="420" y="150" width="60" height="80" as="geometry" />
        </mxCell>
        <mxCell id="ONBF2epBhMk6Fc8EotkD-5" value="Api AppTelcoUser" style="shape=process;whiteSpace=wrap;html=1;backgroundOutline=1;" vertex="1" parent="1">
          <mxGeometry x="570" y="540" width="150" height="160" as="geometry" />
        </mxCell>
        <mxCell id="ONBF2epBhMk6Fc8EotkD-6" value="" style="endArrow=classic;html=1;rounded=0;exitX=1;exitY=0.5;exitDx=0;exitDy=0;entryX=0;entryY=0.5;entryDx=0;entryDy=0;" edge="1" parent="1" source="ONBF2epBhMk6Fc8EotkD-2" target="ONBF2epBhMk6Fc8EotkD-5">
          <mxGeometry width="50" height="50" relative="1" as="geometry">
            <mxPoint x="460" y="720" as="sourcePoint" />
            <mxPoint x="510" y="670" as="targetPoint" />
          </mxGeometry>
        </mxCell>
        <mxCell id="ONBF2epBhMk6Fc8EotkD-8" value="Authen = Token login" style="edgeLabel;html=1;align=center;verticalAlign=middle;resizable=0;points=[];" vertex="1" connectable="0" parent="ONBF2epBhMk6Fc8EotkD-6">
          <mxGeometry x="-0.4095" y="3" relative="1" as="geometry">
            <mxPoint x="48" y="33" as="offset" />
          </mxGeometry>
        </mxCell>
        <mxCell id="ONBF2epBhMk6Fc8EotkD-7" value="Check Authen" style="endArrow=classic;startArrow=classic;html=1;rounded=0;exitX=0.5;exitY=0;exitDx=0;exitDy=0;" edge="1" parent="1" source="ONBF2epBhMk6Fc8EotkD-5" target="ONBF2epBhMk6Fc8EotkD-1">
          <mxGeometry width="50" height="50" relative="1" as="geometry">
            <mxPoint x="530" y="450" as="sourcePoint" />
            <mxPoint x="580" y="400" as="targetPoint" />
          </mxGeometry>
        </mxCell>
      </root>
    </mxGraphModel>
  </diagram>
</mxfile>
